<svg width="120" height="29" viewBox="0 0 120 29" fill="none" xmlns="http://www.w3.org/2000/svg">
<path d="M47.1328 15.7734V20H45.1562V8.625H49.5078C50.7786 8.625 51.7865 8.95573 52.5312 9.61719C53.2812 10.2786 53.6562 11.1536 53.6562 12.2422C53.6562 13.3568 53.2891 14.224 52.5547 14.8438C51.8255 15.4635 50.8021 15.7734 49.4844 15.7734H47.1328ZM47.1328 14.1875H49.5078C50.2109 14.1875 50.7474 14.0234 51.1172 13.6953C51.487 13.362 51.6719 12.8828 51.6719 12.2578C51.6719 11.6432 51.4844 11.1536 51.1094 10.7891C50.7344 10.4193 50.2188 10.2292 49.5625 10.2188H47.1328V14.1875ZM57.2266 20H55.3281V8H57.2266V20ZM64.3516 20C64.2682 19.8385 64.1953 19.5755 64.1328 19.2109C63.5286 19.8411 62.7891 20.1562 61.9141 20.1562C61.0651 20.1562 60.3724 19.9141 59.8359 19.4297C59.2995 18.9453 59.0312 18.3464 59.0312 17.6328C59.0312 16.7318 59.3646 16.0417 60.0312 15.5625C60.7031 15.0781 61.6615 14.8359 62.9062 14.8359H64.0703V14.2812C64.0703 13.8438 63.9479 13.4948 63.7031 13.2344C63.4583 12.9688 63.0859 12.8359 62.5859 12.8359C62.1536 12.8359 61.7995 12.9453 61.5234 13.1641C61.2474 13.3776 61.1094 13.651 61.1094 13.9844H59.2109C59.2109 13.5208 59.3646 13.0885 59.6719 12.6875C59.9792 12.2812 60.3958 11.9635 60.9219 11.7344C61.4531 11.5052 62.0443 11.3906 62.6953 11.3906C63.6849 11.3906 64.474 11.6406 65.0625 12.1406C65.651 12.6354 65.9531 13.3333 65.9688 14.2344V18.0469C65.9688 18.8073 66.0755 19.4141 66.2891 19.8672V20H64.3516ZM62.2656 18.6328C62.6406 18.6328 62.9922 18.5417 63.3203 18.3594C63.6536 18.1771 63.9036 17.9323 64.0703 17.625V16.0312H63.0469C62.3438 16.0312 61.8151 16.1536 61.4609 16.3984C61.1068 16.6432 60.9297 16.9896 60.9297 17.4375C60.9297 17.8021 61.0495 18.0938 61.2891 18.3125C61.5339 18.526 61.8594 18.6328 62.2656 18.6328ZM70.7891 17.2812L72.5078 11.5469H74.5312L71.1719 21.2812C70.6562 22.7031 69.7812 23.4141 68.5469 23.4141C68.2708 23.4141 67.9661 23.3672 67.6328 23.2734V21.8047L67.9922 21.8281C68.4714 21.8281 68.8307 21.7396 69.0703 21.5625C69.3151 21.3906 69.5078 21.099 69.6484 20.6875L69.9219 19.9609L66.9531 11.5469H69L70.7891 17.2812ZM83.8047 17.5234L86.6953 8.625H88.8672L84.7734 20H82.8594L78.7812 8.625H80.9453L83.8047 17.5234ZM93.3516 20.1562C92.1484 20.1562 91.1719 19.7786 90.4219 19.0234C89.6771 18.263 89.3047 17.2526 89.3047 15.9922V15.7578C89.3047 14.9141 89.4661 14.1615 89.7891 13.5C90.1172 12.8333 90.5755 12.3151 91.1641 11.9453C91.7526 11.5755 92.4089 11.3906 93.1328 11.3906C94.2839 11.3906 95.1719 11.7578 95.7969 12.4922C96.4271 13.2266 96.7422 14.2656 96.7422 15.6094V16.375H91.2188C91.276 17.0729 91.5078 17.625 91.9141 18.0312C92.3255 18.4375 92.8411 18.6406 93.4609 18.6406C94.3307 18.6406 95.0391 18.2891 95.5859 17.5859L96.6094 18.5625C96.2708 19.0677 95.8177 19.4609 95.25 19.7422C94.6875 20.0182 94.0547 20.1562 93.3516 20.1562ZM93.125 12.9141C92.6042 12.9141 92.1823 13.0964 91.8594 13.4609C91.5417 13.8255 91.3385 14.3333 91.25 14.9844H94.8672V14.8438C94.8255 14.2083 94.6562 13.7292 94.3594 13.4062C94.0625 13.0781 93.651 12.9141 93.125 12.9141ZM97.8672 15.7109C97.8672 14.4089 98.1693 13.3646 98.7734 12.5781C99.3776 11.7865 100.188 11.3906 101.203 11.3906C102.099 11.3906 102.823 11.7031 103.375 12.3281V8H105.273V20H103.555L103.461 19.125C102.893 19.8125 102.135 20.1562 101.188 20.1562C100.198 20.1562 99.3958 19.7578 98.7812 18.9609C98.1719 18.1641 97.8672 17.0807 97.8672 15.7109ZM99.7656 15.875C99.7656 16.7344 99.9297 17.4062 100.258 17.8906C100.591 18.3698 101.062 18.6094 101.672 18.6094C102.448 18.6094 103.016 18.263 103.375 17.5703V13.9609C103.026 13.2839 102.464 12.9453 101.688 12.9453C101.073 12.9453 100.599 13.1901 100.266 13.6797C99.9323 14.1641 99.7656 14.8958 99.7656 15.875ZM109.273 20H107.375V11.5469H109.273V20ZM107.258 9.35156C107.258 9.0599 107.349 8.81771 107.531 8.625C107.719 8.43229 107.984 8.33594 108.328 8.33594C108.672 8.33594 108.938 8.43229 109.125 8.625C109.312 8.81771 109.406 9.0599 109.406 9.35156C109.406 9.63802 109.312 9.8776 109.125 10.0703C108.938 10.2578 108.672 10.3516 108.328 10.3516C107.984 10.3516 107.719 10.2578 107.531 10.0703C107.349 9.8776 107.258 9.63802 107.258 9.35156ZM110.992 15.6953C110.992 14.8672 111.156 14.1224 111.484 13.4609C111.812 12.7943 112.273 12.2839 112.867 11.9297C113.461 11.5703 114.143 11.3906 114.914 11.3906C116.055 11.3906 116.979 11.7578 117.688 12.4922C118.401 13.2266 118.786 14.2005 118.844 15.4141L118.852 15.8594C118.852 16.6927 118.69 17.4375 118.367 18.0938C118.049 18.75 117.591 19.2578 116.992 19.6172C116.398 19.9766 115.711 20.1562 114.93 20.1562C113.737 20.1562 112.781 19.7604 112.062 18.9688C111.349 18.1719 110.992 17.112 110.992 15.7891V15.6953ZM112.891 15.8594C112.891 16.7292 113.07 17.4115 113.43 17.9062C113.789 18.3958 114.289 18.6406 114.93 18.6406C115.57 18.6406 116.068 18.3906 116.422 17.8906C116.781 17.3906 116.961 16.6589 116.961 15.6953C116.961 14.8411 116.776 14.1641 116.406 13.6641C116.042 13.1641 115.544 12.9141 114.914 12.9141C114.294 12.9141 113.802 13.1615 113.438 13.6562C113.073 14.1458 112.891 14.8802 112.891 15.8594Z" fill="black"/>
<circle cx="14.5" cy="14.5" r="14.5" fill="#0082F4"/>
<path d="M20.0206 14.2402C20.2206 14.3557 20.2206 14.6443 20.0206 14.7598L11.9647 19.4109C11.7647 19.5264 11.5147 19.382 11.5147 19.1511L11.5147 9.84894C11.5147 9.618 11.7647 9.47366 11.9647 9.58913L20.0206 14.2402Z" fill="white"/>
</svg>
